<svg width="20" height="20" viewBox="0 0 20 20" fill="none" xmlns="http://www.w3.org/2000/svg">
<mask id="mask0_18_15902" style="mask-type:alpha" maskUnits="userSpaceOnUse" x="0" y="0" width="20" height="20">
<circle cx="10" cy="10" r="10" fill="#D9D9D9"/>
</mask>
<g mask="url(#mask0_18_15902)">
<path d="M20 0H0V20H20V0Z" fill="#EE1C25"/>
<path d="M6.50998 3.86108L8.39748 9.67025L3.45581 6.08025H9.56414L4.62248 9.67025L6.50998 3.86108Z" fill="#FFFF00"/>
<path d="M12.2811 2.87578L12.1023 4.90421L11.0544 3.15829L12.9279 3.95493L10.9443 4.41181L12.2811 2.87578Z" fill="#FFFF00"/>
<path d="M14.7713 5.25631L13.8186 7.05597L13.5312 5.04019L14.9481 6.50191L12.9428 6.15249L14.7713 5.25631Z" fill="#FFFF00"/>
<path d="M15.0086 8.84592L13.4053 10.1014L13.9641 8.1433L14.6626 10.0556L12.9736 8.91943L15.0086 8.84592Z" fill="#FFFF00"/>
<path d="M12.2404 10.3517L12.1458 12.3858L11.0265 10.6848L12.9314 11.4031L10.9684 11.9419L12.2404 10.3517Z" fill="#FFFF00"/>
</g>
</svg>
