<svg width="69" height="42" viewBox="0 0 69 42" fill="none" xmlns="http://www.w3.org/2000/svg">
<path d="M59.0338 11.1835C58.6085 11.1261 58.1799 11.0974 57.7508 11.0975H51.0198C50.0079 11.0977 49.0177 11.3908 48.1688 11.9415V6.4845C48.1675 5.07333 47.6064 3.72032 46.6086 2.72238C45.6109 1.72444 44.258 1.16309 42.8468 1.1615H15.3728C13.8761 1.16309 12.4412 1.75834 11.3829 2.81664C10.3246 3.87493 9.72939 5.30984 9.7278 6.8065V8.6145H7.21279C7.0509 8.60985 6.88972 8.63772 6.73879 8.69646C6.58786 8.7552 6.45024 8.84362 6.33408 8.95648C6.21793 9.06935 6.12559 9.20436 6.06254 9.35355C5.99949 9.50273 5.967 9.66304 5.967 9.825C5.967 9.98696 5.99949 10.1473 6.06254 10.2964C6.12559 10.4456 6.21793 10.5806 6.33408 10.6935C6.45024 10.8064 6.58786 10.8948 6.73879 10.9535C6.88972 11.0123 7.0509 11.0401 7.21279 11.0355H9.7288V13.5805H2.2458C2.0839 13.5758 1.92272 13.6037 1.77179 13.6624C1.62086 13.7212 1.48324 13.8096 1.36709 13.9225C1.25093 14.0353 1.1586 14.1704 1.09554 14.3195C1.03249 14.4687 1 14.629 1 14.791C1 14.953 1.03249 15.1133 1.09554 15.2625C1.1586 15.4116 1.25093 15.5466 1.36709 15.6595C1.48324 15.7724 1.62086 15.8608 1.77179 15.9195C1.92272 15.9783 2.0839 16.0061 2.2458 16.0015H9.7288V18.5475H5.97179C5.8099 18.5428 5.64872 18.5707 5.49779 18.6295C5.34686 18.6882 5.20924 18.7766 5.09309 18.8895C4.97693 19.0023 4.88459 19.1374 4.82154 19.2865C4.75849 19.4357 4.726 19.596 4.726 19.758C4.726 19.92 4.75849 20.0803 4.82154 20.2294C4.88459 20.3786 4.97693 20.5136 5.09309 20.6265C5.20924 20.7394 5.34686 20.8278 5.49779 20.8865C5.64872 20.9453 5.8099 20.9731 5.97179 20.9685H9.7288V23.5135H2.2458C2.0839 23.5089 1.92272 23.5367 1.77179 23.5954C1.62086 23.6542 1.48324 23.7426 1.36709 23.8555C1.25093 23.9683 1.1586 24.1034 1.09554 24.2525C1.03249 24.4017 1 24.562 1 24.724C1 24.886 1.03249 25.0463 1.09554 25.1954C1.1586 25.3446 1.25093 25.4796 1.36709 25.5925C1.48324 25.7054 1.62086 25.7938 1.77179 25.8525C1.92272 25.9113 2.0839 25.9391 2.2458 25.9345H9.7288V28.2015C9.73065 29.9057 10.4085 31.5397 11.6136 32.7447C12.8186 33.9498 14.4525 34.6276 16.1568 34.6295H17.1828C17.1828 34.6405 17.1828 34.6495 17.1828 34.6595C17.1828 36.2983 17.8338 37.8699 18.9926 39.0287C20.1514 40.1875 21.723 40.8385 23.3618 40.8385C25.0006 40.8385 26.5722 40.1875 27.731 39.0287C28.8898 37.8699 29.5408 36.2983 29.5408 34.6595C29.5408 34.6485 29.5408 34.6395 29.5408 34.6295H50.7208C50.7208 34.6405 50.7208 34.6495 50.7208 34.6595C50.7208 36.2983 51.3718 37.8699 52.5306 39.0287C53.6894 40.1875 55.261 40.8385 56.8998 40.8385C58.5386 40.8385 60.1102 40.1875 61.269 39.0287C62.4278 37.8699 63.0788 36.2983 63.0788 34.6595C63.0788 34.6485 63.0788 34.6395 63.0788 34.6295H63.5708C64.758 34.6282 65.8963 34.156 66.7358 33.3165C67.5753 32.477 68.0475 31.3387 68.0488 30.1515V21.3905C68.049 18.8847 67.1339 16.4652 65.4754 14.5868C63.8169 12.7084 61.5293 11.5006 59.0428 11.1905L59.0338 11.1835ZM58.7228 13.5835C60.6267 13.8176 62.3792 14.7399 63.6502 16.1766C64.9211 17.6133 65.6227 19.4653 65.6228 21.3835V22.2725H57.4288C56.9497 22.2722 56.4903 22.0819 56.1513 21.7434C55.8124 21.4048 55.6216 20.9456 55.6208 20.4665V13.5155H57.7508C58.0763 13.5151 58.4014 13.5375 58.7238 13.5825L58.7228 13.5835ZM23.3598 38.4195C22.6167 38.4195 21.8904 38.1992 21.2725 37.7863C20.6547 37.3735 20.1731 36.7867 19.8888 36.1002C19.6044 35.4137 19.53 34.6583 19.675 33.9295C19.8199 33.2007 20.1778 32.5313 20.7032 32.0059C21.2286 31.4805 21.8981 31.1227 22.6268 30.9777C23.3556 30.8327 24.111 30.9071 24.7975 31.1915C25.484 31.4758 26.0708 31.9574 26.4836 32.5752C26.8964 33.1931 27.1168 33.9194 27.1168 34.6625C27.1165 35.6591 26.7207 36.6149 26.0163 37.3199C25.3119 38.0249 24.3564 38.4214 23.3598 38.4225V38.4195ZM23.3598 28.4835C22.1547 28.4848 20.9763 28.8381 19.9694 29.5C18.9624 30.162 18.1708 31.1037 17.6918 32.2095H16.1568C15.0947 32.2082 14.0766 31.7857 13.3256 31.0347C12.5746 30.2837 12.1521 29.2655 12.1508 28.2035V25.9365H15.9078C16.2228 25.9274 16.5219 25.7959 16.7415 25.5699C16.9611 25.3439 17.084 25.0411 17.084 24.726C17.084 24.4108 16.9611 24.1081 16.7415 23.8821C16.5219 23.6561 16.2228 23.5246 15.9078 23.5155H12.1508V20.9705H18.3918C18.7068 20.9614 19.0059 20.8299 19.2255 20.6039C19.4451 20.3779 19.568 20.0751 19.568 19.76C19.568 19.4448 19.4451 19.1421 19.2255 18.9161C19.0059 18.6901 18.7068 18.5586 18.3918 18.5495H12.1508V16.0035H15.9078C16.2228 15.9944 16.5219 15.8629 16.7415 15.6369C16.9611 15.4109 17.084 15.1082 17.084 14.793C17.084 14.4778 16.9611 14.1751 16.7415 13.9491C16.5219 13.7231 16.2228 13.5916 15.9078 13.5825H12.1508V11.0375H18.3918C18.7068 11.0284 19.0059 10.8969 19.2255 10.6709C19.4451 10.4449 19.568 10.1421 19.568 9.827C19.568 9.51184 19.4451 9.2091 19.2255 8.98308C19.0059 8.75705 18.7068 8.62556 18.3918 8.6165H12.1508V6.8085C12.1519 5.95403 12.4918 5.13486 13.096 4.53065C13.7002 3.92645 14.5193 3.58655 15.3738 3.58549H42.8468C43.2276 3.58549 43.6047 3.66051 43.9566 3.80624C44.3084 3.95198 44.6281 4.1656 44.8974 4.43489C45.1667 4.70418 45.3803 5.02387 45.526 5.37572C45.6718 5.72756 45.7468 6.10467 45.7468 6.4855V32.2145H29.0288C28.5499 31.1086 27.7583 30.1667 26.7513 29.5046C25.7444 28.8425 24.5659 28.489 23.3608 28.4875L23.3598 28.4835ZM56.8938 38.4195C56.1507 38.4195 55.4243 38.1992 54.8065 37.7863C54.1887 37.3735 53.7071 36.7867 53.4228 36.1002C53.1384 35.4137 53.064 34.6583 53.209 33.9295C53.354 33.2007 53.7118 32.5313 54.2372 32.0059C54.7626 31.4805 55.432 31.1227 56.1608 30.9777C56.8896 30.8327 57.645 30.9071 58.3315 31.1915C59.018 31.4758 59.6048 31.9574 60.0176 32.5752C60.4305 33.1931 60.6508 33.9194 60.6508 34.6625C60.6505 35.6593 60.2546 36.6152 59.5499 37.3202C58.8453 38.0252 57.8896 38.4217 56.8928 38.4225L56.8938 38.4195ZM63.5638 32.2095H62.5638C62.0859 31.1029 61.2945 30.1605 60.2873 29.4983C59.2801 28.8362 58.1011 28.4834 56.8958 28.4834C55.6904 28.4834 54.5115 28.8362 53.5042 29.4983C52.497 30.1605 51.7057 31.1029 51.2278 32.2095H48.1708V16.3715C48.1716 15.6156 48.4722 14.8909 49.0067 14.3564C49.5412 13.8219 50.2659 13.5213 51.0218 13.5205H53.2018V20.4695C53.2029 21.5909 53.6489 22.6661 54.442 23.459C55.235 24.2519 56.3104 24.6977 57.4318 24.6985H65.6208V30.1575C65.62 30.7023 65.4032 31.2245 65.018 31.6097C64.6328 31.9949 64.1106 32.2117 63.5658 32.2125L63.5638 32.2095Z" fill="#4E4B66" stroke="#4E4B66"/>
<path d="M34.7329 9.58153C34.5565 9.4327 34.3414 9.33735 34.1126 9.30673C33.8839 9.27611 33.6512 9.31148 33.4419 9.40867C33.2326 9.50586 33.0554 9.66083 32.9312 9.85533C32.8071 10.0498 32.741 10.2757 32.7409 10.5065V12.5245H23.2349C22.9137 12.5245 22.6057 12.6521 22.3786 12.8792C22.1515 13.1063 22.0239 13.4143 22.0239 13.7355V20.1945C22.0239 20.5157 22.1515 20.8237 22.3786 21.0508C22.6057 21.2779 22.9137 21.4055 23.2349 21.4055H32.7409V23.4235C32.7408 23.6544 32.8067 23.8804 32.9308 24.0751C33.0549 24.2697 33.2321 24.4249 33.4414 24.5222C33.6508 24.6195 33.8836 24.6549 34.1124 24.6243C34.3412 24.5938 34.5565 24.4984 34.7329 24.3495L42.3879 17.8905C42.5226 17.7769 42.6309 17.6353 42.7051 17.4755C42.7794 17.3158 42.8179 17.1417 42.8179 16.9655C42.8179 16.7893 42.7794 16.6153 42.7051 16.4555C42.6309 16.2957 42.5226 16.1541 42.3879 16.0405L34.7329 9.58153ZM35.1629 20.8175V20.1945C35.1629 20.0355 35.1316 19.878 35.0707 19.7311C35.0099 19.5842 34.9207 19.4507 34.8082 19.3382C34.6958 19.2258 34.5623 19.1366 34.4153 19.0757C34.2684 19.0148 34.111 18.9835 33.9519 18.9835H24.4459V14.9465H33.9519C34.111 14.9465 34.2684 14.9152 34.4153 14.8543C34.5623 14.7935 34.6958 14.7043 34.8082 14.5918C34.9207 14.4794 35.0099 14.3459 35.0707 14.199C35.1316 14.052 35.1629 13.8945 35.1629 13.7355V13.1125L39.7289 16.9645L35.1629 20.8175Z" fill="#4E4B66" stroke="#4E4B66" stroke-width="1.25"/>
</svg>
