<svg width="52" height="56" viewBox="0 0 52 56" fill="none" xmlns="http://www.w3.org/2000/svg">
<path d="M50.6551 18.982L49.7691 14.544L45.1071 14.709C43.2751 14.712 34.1221 14.382 30.0161 7.782L25.5781 0.841003L21.0841 7.831C17.0901 14.382 7.87812 14.656 6.10512 14.656L1.38712 14.491L0.50112 18.929C-0.306089 24.8341 -0.137171 30.8317 1.00112 36.682C2.34607 43.5821 5.57141 49.9763 10.3211 55.159V52.719H13.2611C8.89503 48.026 5.93464 42.2012 4.71712 35.908C3.58396 30.5788 3.45273 25.0852 4.33012 19.708L4.55212 18.432L6.10612 18.488C8.26912 18.488 19.2531 18.101 24.3591 9.888L25.6351 7.888L26.8551 9.829C31.9601 18.098 42.9401 18.482 45.1631 18.482L46.6631 18.426L46.8851 19.702C47.7637 25.0792 47.6324 30.5729 46.4981 35.902C45.256 42.1867 42.2988 48.0051 37.9541 52.713H41.0591V55.041C45.7467 49.853 48.9315 43.4855 50.2711 36.623C51.4985 30.8181 51.6287 24.8348 50.6551 18.982Z" fill="#4E4B66"/>
<path d="M38.7831 25.5311L38.4491 23.9161L36.6731 23.9721C35.5651 23.9721 29.7951 23.7501 27.2421 19.5341L25.6321 17.0341L24.0251 19.5961C21.4721 23.7561 15.7021 23.9771 14.5921 23.9771L12.8161 23.9161L12.4851 25.5261C11.9519 28.7114 12.0273 31.9689 12.7071 35.1261C13.3328 38.4346 14.7708 41.5359 16.8917 44.1511C19.0126 46.7664 21.7501 48.8137 24.8581 50.1091L25.6351 50.4991L26.4121 50.1651C29.5231 48.8761 32.2633 46.8311 34.3842 44.2155C36.5051 41.5999 37.9398 38.4963 38.5581 35.1861C39.2414 32.0107 39.3167 28.7346 38.7801 25.5311M24.6341 40.2891L19.7531 35.4081L22.2531 32.9081L24.6341 35.2961L29.9051 30.0251L32.4051 32.5251L24.6341 40.2891Z" fill="#4E4B66"/>
</svg>
