<svg width="49" height="64" viewBox="0 0 49 64" fill="none" xmlns="http://www.w3.org/2000/svg">
<path d="M47.7021 43.458L33.3871 16.567C32.9514 15.75 32.3202 15.0535 31.5498 14.5398C30.7794 14.0261 29.8939 13.7111 28.9721 13.623L18.4721 12.623C18.1228 10.9845 17.5359 9.40578 16.7301 7.93696C15.4497 5.39958 13.5381 3.23421 11.1791 1.64896C8.63512 0.111958 6.09412 -0.151042 4.08812 0.914958C2.01312 1.98296 0.876118 4.25896 0.741118 7.20296C0.754301 10.0512 1.46684 12.8526 2.81612 15.361C3.5867 16.8618 4.57956 18.2377 5.76112 19.442L0.676118 28.674C0.23252 29.4839 0 30.3925 0 31.316C0 32.2394 0.23252 33.148 0.676118 33.958L14.9231 60.782C15.4043 61.6752 16.1188 62.4212 16.9905 62.9404C17.8622 63.4595 18.8585 63.7324 19.8731 63.73C20.7854 63.7301 21.6831 63.5004 22.4831 63.062L45.4281 50.883C46.7112 50.1968 47.6705 49.0307 48.0964 47.6394C48.5223 46.2481 48.3802 44.7448 47.7011 43.458M4.89112 7.33496C4.95712 5.99696 5.35712 4.92596 6.02812 4.59196C6.51976 4.4482 7.03924 4.42774 7.54066 4.53239C8.04208 4.63703 8.51001 4.86356 8.90312 5.19196C10.6402 6.37995 12.0447 7.99234 12.9831 9.87596C13.3849 10.6259 13.7195 11.41 13.9831 12.219L13.5141 12.153C12.4302 12.0579 11.3419 12.2791 10.3811 12.7897C9.42021 13.3003 8.62793 14.0784 8.10012 15.03L7.90012 15.43C7.38629 14.747 6.91667 14.0319 6.49412 13.289C5.4865 11.4631 4.93743 9.41991 4.89412 7.33496M43.4191 47.271L20.4771 59.444C20.1645 59.6022 19.8033 59.6349 19.4673 59.5354C19.1314 59.436 18.8462 59.2118 18.6701 58.909L4.35612 32.018C4.25679 31.8212 4.20505 31.6039 4.20505 31.3835C4.20505 31.163 4.25679 30.9457 4.35612 30.749L9.10412 22.049C10.2535 22.6812 11.5395 23.0244 12.8511 23.049C13.1858 23.0598 13.5208 23.0377 13.8511 22.983C14.1195 22.9363 14.3759 22.8369 14.6056 22.6905C14.8353 22.5441 15.0337 22.3536 15.1893 22.1301C15.3449 21.9065 15.4546 21.6543 15.512 21.3881C15.5695 21.1218 15.5736 20.8468 15.5241 20.579C15.4838 20.3076 15.3884 20.0473 15.2437 19.8141C15.099 19.581 14.9082 19.3799 14.6829 19.2233C14.4576 19.0667 14.2026 18.9578 13.9337 18.9034C13.6648 18.849 13.3876 18.8502 13.1191 18.907C12.4178 18.958 11.7174 18.7955 11.1101 18.441L11.7811 17.169C11.8921 16.9461 12.0634 16.7589 12.2756 16.6286C12.4877 16.4983 12.7322 16.4302 12.9811 16.432H13.1161L28.5671 17.832C28.7918 17.8595 29.0065 17.9409 29.1929 18.0692C29.3794 18.1975 29.5321 18.369 29.6381 18.569L43.9551 45.397C44.124 45.718 44.1627 46.0919 44.063 46.4407C43.9634 46.7895 43.7331 47.0865 43.4201 47.27" fill="#4E4B66"/>
<path d="M26.4811 47.0919L23.3091 40.8669L27.7751 38.5939C31.5581 36.6659 32.3341 32.9939 30.7821 29.9479C29.2151 26.8749 25.8331 25.3589 22.0191 27.2989L13.8241 31.4729L22.7521 48.9929L26.4811 47.0919ZM25.6031 35.5629L21.6331 37.5839L19.2281 32.8559L23.1951 30.8349C23.507 30.6362 23.8573 30.5054 24.2231 30.451C24.589 30.3966 24.9622 30.4198 25.3184 30.5191C25.6747 30.6184 26.0061 30.7916 26.291 31.0275C26.5759 31.2633 26.808 31.5565 26.9721 31.8879C27.1414 32.216 27.2403 32.5759 27.2624 32.9445C27.2845 33.3131 27.2294 33.6822 27.1005 34.0282C26.9716 34.3742 26.7718 34.6895 26.5139 34.9538C26.2561 35.218 25.9458 35.4255 25.6031 35.5629Z" fill="#4E4B66"/>
<path d="M17.248 46.443L18.43 48.762L31.087 42.312L29.905 39.993L17.248 46.443Z" fill="#4E4B66"/>
<path d="M22.389 48.3389L23.935 51.3659L27.679 49.4659L26.133 46.4319L22.389 48.3389Z" fill="#2B2E34"/>
</svg>
