<svg width="196" height="30" viewBox="0 0 196 30" fill="none" xmlns="http://www.w3.org/2000/svg">
<g clip-path="url(#clip0_124_21353)">
<path d="M147.613 22.9909V16.2909H145.122V26.7019H147.222L153.222 19.9409V26.7019H155.712V16.2869H153.619L147.613 22.9909ZM174.29 23.0479V16.2869H171.801V26.6979H173.894L179.894 19.8809V26.6979H182.384V16.2869H180.174L174.29 23.0479ZM166.482 20.3319H161.022V16.2859H158.533V26.6969H161.022V22.6219H166.482V26.6969H168.972V16.2869H166.482V20.3319ZM136.159 16.2859L130.189 26.6969H133.131L137.064 19.8219L141.024 26.6969H144.109L138.139 16.2859H136.159ZM193.585 16.2859L187.699 23.0469V16.2859H185.21V26.6969H187.304L193.304 19.8799V26.6969H195.793V16.2869L193.585 16.2859ZM133.102 16.2859H121.502V18.5769H131.774L133.102 16.2859ZM121.502 20.3319V22.6219H129.451L130.78 20.3319H121.502ZM66.502 16.2859H54.9021V18.5769H65.17L66.502 16.2859ZM45.6481 13.9939H43.6111L37.644 24.4059H36.144V29.7519H38.519V26.6969H50.744V29.7519H53.121V24.4059H51.621L45.6481 13.9939ZM40.612 24.4049L44.5441 17.5309L48.5051 24.4049H40.612ZM83.787 16.0309C79.628 16.0309 77.6481 18.5769 77.6481 21.4309C77.6481 24.4019 79.571 26.8309 83.787 26.8309C85.626 26.8309 89.8701 25.9819 89.8701 21.4309C89.8771 18.4649 87.9801 16.0319 83.7941 16.0319L83.787 16.0309ZM83.7581 24.5459C81.3581 24.5459 80.3351 23.1599 80.3351 21.4619C80.3351 19.5949 81.4951 18.3499 83.7581 18.3499C86.3051 18.3499 87.181 19.5949 87.181 21.4619C87.188 23.6979 85.519 24.5469 83.765 24.5469L83.7581 24.5459ZM69.558 16.2859L63.5891 26.6969H66.53L70.4621 19.8219L74.423 26.6969H77.506L71.5441 16.2869L69.558 16.2859ZM116.208 26.6969H118.67V16.2869H116.208V26.6969ZM111.508 20.0199H107.719V16.2859H105.229V26.6969H111.483C111.941 26.7347 112.401 26.6733 112.833 26.5169C113.265 26.3605 113.658 26.1128 113.986 25.7906C114.313 25.4685 114.568 25.0795 114.731 24.6501C114.894 24.2208 114.963 23.7613 114.933 23.3029C114.944 20.0769 112.677 20.0199 111.517 20.0199H111.508ZM111.367 24.4899H107.719V22.1709H111.367C111.792 22.1709 112.442 22.2849 112.442 23.3309C112.45 24.2919 111.914 24.4909 111.375 24.4909L111.367 24.4899ZM54.9021 20.3319V22.6219H62.851L64.181 20.3319H54.9021ZM121.496 26.6969H127.125L128.425 24.4049H121.504L121.496 26.6969ZM100.755 20.5549C101.138 20.4262 101.467 20.1722 101.688 19.8339C101.91 19.4956 102.011 19.0926 101.975 18.6899C101.975 16.5389 100.165 16.2899 98.8911 16.2899H92.159V26.7009H99.0051C102.144 26.7009 102.796 24.9749 102.796 23.3909C102.851 22.7536 102.677 22.1177 102.304 21.5978C101.931 21.0779 101.385 20.7084 100.764 20.5559L100.755 20.5549ZM94.621 18.4919H98.608C99.203 18.4919 99.4581 18.8029 99.4581 19.3979C99.471 19.5166 99.4585 19.6367 99.4215 19.7502C99.3845 19.8637 99.3238 19.9681 99.2435 20.0564C99.1631 20.1447 99.0649 20.2149 98.9554 20.2624C98.8458 20.3099 98.7274 20.3336 98.608 20.3319H94.621V18.4919ZM99.0051 24.4919H94.621V22.2569H99.0051C99.7121 22.2569 100.222 22.4269 100.222 23.3569C100.23 24.0939 99.92 24.4909 99.013 24.4909L99.0051 24.4919ZM54.905 26.6989H60.5441L61.8441 24.4069H54.9131L54.905 26.6989Z" fill="#111111"/>
<path d="M19.323 18.8509L8.97398 11.1719L6.44698 15.5499L18.276 20.6689L19.323 18.8509ZM20.915 16.0969L12.043 5.85391L9.53497 10.2009L19.882 17.8849L20.915 16.0969ZM22.815 12.8039L15.423 0.00390625L12.632 4.83292L21.501 15.0779L22.815 12.8039ZM2.78798 21.8859L0.000976562 26.7139H14.784L16.095 24.4429L2.78798 21.8859ZM16.066 26.7149H20.001L23.457 20.7289L26.913 26.7149H30.846L23.458 13.9149L16.066 26.7149ZM17.714 21.6359L5.88598 16.5179L3.37498 20.8669L16.682 23.4249L17.714 21.6359Z" fill="#FD9C00"/>
</g>
<defs>
<clipPath id="clip0_124_21353">
<rect width="195.79" height="29.751" fill="white"/>
</clipPath>
</defs>
</svg>
