<svg width="57" height="46" viewBox="0 0 57 46" fill="none" xmlns="http://www.w3.org/2000/svg">
<path d="M18.5 35.7001V43.9001M27.6 2.1001V13.9001M45.8 9.3001H44M45.8 5.7001H44M18.5 5.7001V13.9001M10.3 23.0001H16.7M10.3 26.6001H16.7M51.3 21.2001H54.9V15.7001H51.3V21.2001ZM18.5 42.1001H22.1V38.5001H18.5V42.1001ZM40.4 10.3001H44V4.8001H40.4V10.3001ZM39.4 11.2001H27.5V3.9001H39.4C39.9 3.9001 40.3 4.3001 40.3 4.8001V10.3001C40.4 10.8001 39.9 11.2001 39.4 11.2001ZM18.5 11.2001H24V7.6001H18.5V11.2001ZM5.7 27.6001H10.3V22.1001H5.7V27.6001V27.6001ZM10.3 30.3001H16.7V19.4001H10.3V30.3001V30.3001ZM8.4 15.7001L2 20.3001V24.9001V29.5001L8.4 34.1001H16.6V25.0001V15.9001L8.4 15.7001ZM25.8 35.7001H51.3V13.8001H25.8V35.7001ZM16.6 35.7001H25.7V13.8001H16.6V35.7001Z" stroke="#4E4B66" stroke-width="2.3" stroke-linecap="round" stroke-linejoin="round"/>
</svg>
