<svg width="50" height="50" viewBox="0 0 50 50" fill="none" xmlns="http://www.w3.org/2000/svg">
<path d="M46.2 43H43.0999V41.4001H41.5V43H38.4V36.7001H41.5V39.8H43.0999V36.7001H46.2V43ZM44.5999 47.7001H39.9V44.6H44.5999V47.7001ZM38.7 33.6H45.9L47.5 35.2001H37.2L38.7 33.6ZM45.4 32H39.0999V27.3H45.4V32ZM26.5999 21.1C21.3999 21.1 17.2 16.9 17.2 11.7C17.2 7.20005 20.4 3.40005 24.7 2.50005C25.4 2.40005 26.1 2.30005 26.9 2.30005C32 2.40005 36.0999 6.60005 36.0999 11.7C36 16.9 31.7999 21.1 26.5999 21.1ZM14.8 25.8H8.49995V21.1H14.8V25.8ZM21.0999 28.1V29.7001C21.0999 30.1 20.6999 30.5 20.2999 30.5H2.99995C2.59995 30.5 2.19995 30.2001 2.19995 29.7001V28.1C2.19995 27.7 2.59995 27.3 2.99995 27.3H20.2999C20.6999 27.3 21.0999 27.7 21.0999 28.1ZM5.09995 43L4.29995 41.4001H19L18.2 43H5.09995ZM16.4 47.7001H14.8V44.6H16.4V47.7001ZM8.49995 47.7001H6.89995V44.6H8.49995V47.7001ZM3.79995 32H19.5V39.8H3.79995V32ZM49.3 34.8L47 32.5V25.8H43.0999V16.8C43.0999 8.00005 35.8999 0.800049 27 0.800049C26.9 0.800049 26.9 0.800049 26.7999 0.800049C26.6999 0.800049 26.6999 0.800049 26.5999 0.800049C25.7999 0.800049 25.0999 0.900049 24.2999 1.00005C16.6999 2.30005 10.9 8.90005 10.9 16.8V19.5H6.99995V25.8H3.09995C1.79995 25.8 0.699951 26.8 0.699951 28.1V29.7001C0.699951 30.7001 1.39995 31.6001 2.29995 31.9001V40.8L4.19995 44.5H5.49995V49.2H10.2V44.5H13.3V49.2H18V44.5H19.2999L21.2 40.8V31.9001C22.1 31.6001 22.7999 30.7001 22.7999 29.7001V28.1C22.7999 26.8 21.7 25.8 20.4 25.8H16.5V19.5H12.6V16.8C12.6 12.6 14.4 8.90005 17.2 6.20005C16.3 7.80005 15.7 9.70005 15.7 11.7C15.7 17.7001 20.6 22.6 26.7 22.6C32.7999 22.6 37.7 17.7001 37.7 11.7C37.7 9.10005 36.7999 6.70005 35.2 4.80005C39.1 7.40005 41.5999 11.8 41.5999 16.8V25.8H37.7V32.5L35.2999 34.8V36.7001H36.9V44.5H38.5V49.2H46.4V44.5H48V36.7001H49.5999V34.8H49.3Z" fill="#4E4B66" stroke="#4E4B66" stroke-width="0.5" stroke-miterlimit="10"/>
</svg>
