<svg width="153" height="63" viewBox="0 0 153 63" fill="none" xmlns="http://www.w3.org/2000/svg">
<g clip-path="url(#clip0_144_42096)">
<path d="M31.316 49.63C36 49.63 40.4922 47.7693 43.8042 44.4572C47.1163 41.1451 48.977 36.653 48.977 31.969C48.976 27.2857 47.1148 22.7946 43.8028 19.4834C40.4909 16.1722 35.9993 14.312 31.316 14.312C26.6327 14.312 22.1412 16.1722 18.8292 19.4834C15.5173 22.7946 13.6561 27.2857 13.655 31.969C13.655 36.653 15.5157 41.1451 18.8278 44.4572C22.1399 47.7693 26.632 49.63 31.316 49.63V49.63Z" stroke="#A0A3BC" stroke-width="2"/>
<path d="M21.3209 46.999C18.6689 48.333 16.0559 48.748 14.8899 47.752C11.9759 45.268 16.1759 35.568 24.2719 26.103C32.3679 16.638 41.2949 10.968 44.2109 13.459C45.4279 14.498 45.4039 16.791 44.3759 19.799" stroke="#A0A3BC" stroke-width="2"/>
<path d="M41.135 46.999C43.791 48.333 46.611 48.748 47.777 47.752C50.691 45.268 46.491 35.568 38.391 26.103C30.291 16.638 21.371 10.968 18.457 13.459C17.24 14.498 17.263 16.791 18.291 19.799" stroke="#A0A3BC" stroke-width="2"/>
<path d="M48.622 29.13C52.522 30.143 53.831 31.291 53.831 32.984C53.831 36.456 43.716 39.208 31.247 39.208C18.778 39.208 8.70996 36.914 8.70996 33.208C8.70996 31.266 11.047 29.959 14.01 28.924" stroke="#A0A3BC" stroke-width="2.086"/>
<path d="M31.251 61.002C35.1584 61.002 39.0275 60.2323 42.6374 58.7369C46.2473 57.2414 49.5272 55.0495 52.2899 52.2864C55.0526 49.5232 57.2439 46.2429 58.7388 42.6328C60.2336 39.0226 61.0027 35.1534 61.002 31.246C61.0007 23.3564 57.8656 15.7904 52.2864 10.2121C46.7071 4.63378 39.1406 1.5 31.251 1.5C23.3614 1.5 15.7949 4.63378 10.2156 10.2121C4.63638 15.7904 1.50133 23.3564 1.5 31.246C1.49934 35.1534 2.26839 39.0226 3.76323 42.6328C5.25806 46.2429 7.4494 49.5232 10.2121 52.2864C12.9748 55.0495 16.2547 57.2414 19.8646 58.7369C23.4745 60.2323 27.3436 61.002 31.251 61.002V61.002Z" stroke="#A0A3BC" stroke-width="3"/>
<path d="M22.009 43.422L31.356 23.675L40.726 43.421H37.162L31.369 31.177L25.58 43.422H22.009Z" fill="white"/>
<path d="M31.355 23.674L22.009 43.421H25.58L31.37 31.176L37.162 43.42H40.725L31.355 23.674Z" fill="#A0A3BC" stroke="#A0A3BC" stroke-width="2"/>
<path d="M77.239 25.494L79.163 19.194L81.089 25.494H77.239ZM68.139 34.416H74.612L75.839 30.392H82.489L83.713 34.416H90.185L82.664 12.374H75.664L68.139 34.416ZM91.8 34.416H102.651C107.233 34.416 109.997 31.616 109.997 28.116C110.011 27.3071 109.846 26.5052 109.513 25.7677C109.181 25.0302 108.689 24.3753 108.074 23.85C107.497 23.3671 106.848 22.9774 106.15 22.695C106.693 22.4265 107.19 22.0719 107.62 21.645C108.095 21.194 108.472 20.651 108.73 20.0493C108.988 19.4476 109.121 18.7997 109.12 18.145C109.12 14.961 106.496 12.372 101.948 12.372H91.805L91.8 34.416ZM97.928 20.946V17.097H100.728C100.994 17.0785 101.261 17.1143 101.512 17.2022C101.764 17.29 101.995 17.4282 102.191 17.6082C102.388 17.7881 102.545 18.0062 102.655 18.2491C102.764 18.492 102.823 18.7546 102.828 19.021C102.823 19.2875 102.765 19.5502 102.655 19.7932C102.546 20.0362 102.388 20.2544 102.191 20.4345C101.995 20.6146 101.764 20.7528 101.512 20.8408C101.261 20.9287 100.994 20.9645 100.728 20.946H97.928ZM97.928 29.692V25.14H101.252C101.562 25.1277 101.872 25.1768 102.163 25.2846C102.455 25.3924 102.722 25.5566 102.949 25.7679C103.177 25.9792 103.36 26.2335 103.489 26.5159C103.618 26.7984 103.69 27.1036 103.701 27.414C103.69 27.7244 103.618 28.0296 103.489 28.3121C103.36 28.5946 103.177 28.8488 102.949 29.0601C102.722 29.2714 102.455 29.4356 102.163 29.5434C101.872 29.6512 101.562 29.7003 101.252 29.688L97.928 29.692ZM116.918 34.415H123.039V18.322H128.987V12.374H110.97V18.322H116.918V34.415ZM146.293 23.395C146.331 24.0877 146.228 24.7809 145.991 25.4329C145.754 26.0849 145.387 26.6822 144.914 27.1888C144.44 27.6954 143.868 28.101 143.233 28.3809C142.599 28.6609 141.914 28.8096 141.22 28.818C140.526 28.8096 139.842 28.6609 139.207 28.3809C138.572 28.101 138 27.6954 137.527 27.1888C137.053 26.6822 136.686 26.0849 136.449 25.4329C136.212 24.7809 136.109 24.0877 136.147 23.395C136.109 22.7023 136.212 22.0091 136.449 21.3571C136.686 20.7051 137.053 20.1078 137.527 19.6012C138 19.0946 138.572 18.6891 139.207 18.4091C139.842 18.1291 140.526 17.9804 141.22 17.972C141.914 17.9804 142.599 18.1291 143.233 18.4091C143.868 18.6891 144.44 19.0946 144.914 19.6012C145.387 20.1078 145.754 20.7051 145.991 21.3571C146.228 22.0091 146.331 22.7023 146.293 23.395ZM130.024 23.395C129.99 24.8832 130.255 26.3632 130.803 27.7471C131.352 29.1309 132.173 30.3905 133.217 31.4511C134.262 32.5116 135.509 33.3516 136.884 33.921C138.26 34.4904 139.735 34.7778 141.224 34.766C142.713 34.7778 144.188 34.4904 145.564 33.921C146.939 33.3516 148.186 32.5116 149.231 31.4511C150.275 30.3905 151.096 29.1309 151.645 27.7471C152.193 26.3632 152.458 24.8832 152.424 23.395C152.458 21.9068 152.193 20.4268 151.645 19.0429C151.096 17.6591 150.275 16.3995 149.231 15.3389C148.186 14.2784 146.939 13.4385 145.564 12.869C144.188 12.2996 142.713 12.0122 141.224 12.024C139.735 12.0122 138.26 12.2996 136.884 12.869C135.509 13.4385 134.262 14.2784 133.217 15.3389C132.173 16.3995 131.352 17.6591 130.803 19.0429C130.255 20.4268 129.99 21.9068 130.024 23.395Z" fill="#A0A3BC"/>
<path d="M68.556 47.108C68.881 48.0682 69.4946 48.9046 70.313 49.5028C71.1313 50.101 72.1145 50.4318 73.128 50.45C73.7741 50.4549 74.4146 50.3299 75.0115 50.0825C75.6084 49.8352 76.1496 49.4705 76.6028 49.01C77.0561 48.5496 77.4123 48.0028 77.6502 47.402C77.8882 46.8013 78.003 46.1589 77.988 45.513C78.0026 44.8673 77.8875 44.2252 77.6493 43.6249C77.4112 43.0245 77.055 42.4781 76.6017 42.018C76.1485 41.5578 75.6075 41.1934 75.0108 40.9462C74.4141 40.699 73.7739 40.5742 73.128 40.579C72.1046 40.5925 71.1119 40.9306 70.2929 41.5445C69.474 42.1584 68.871 43.0164 68.571 43.995L71.305 44.223C71.4191 44.0163 71.5622 43.827 71.73 43.661C71.9124 43.4752 72.1304 43.3283 72.371 43.2289C72.6116 43.1296 72.8698 43.08 73.13 43.083C73.4342 43.0733 73.7369 43.1293 74.0175 43.2471C74.2981 43.365 74.55 43.542 74.756 43.766C74.9376 43.9667 75.0815 44.1984 75.181 44.45H72.247V46.579H75.178C75.021 46.9916 74.739 47.3448 74.3715 47.5893C74.004 47.8339 73.5692 47.9575 73.128 47.943C72.871 47.9531 72.6145 47.9113 72.374 47.8201C72.1334 47.7288 71.9137 47.5901 71.728 47.412C71.5581 47.2593 71.4151 47.0791 71.305 46.879L68.556 47.108ZM78.421 50.298C78.5305 50.3309 78.6421 50.3563 78.755 50.374C78.9946 50.4234 79.2384 50.4488 79.483 50.45C81.17 50.45 82.278 49.31 82.445 47.412L82.745 43.312H84.876V50.298H87.534V40.729H80.396L79.94 46.729C79.88 47.534 79.469 47.944 78.725 47.944H78.425L78.421 50.298ZM89.192 50.298H96.483V47.943H91.851V46.579H95.951V44.299H91.851V43.079H96.331V40.729H89.193L89.192 50.298ZM97.892 50.298H100.55V46.121L103.206 50.298H106.244L102.902 45.438L105.94 40.729H102.978L100.548 44.784V40.729H97.889L97.892 50.298ZM109.138 50.298H111.795V43.311H114.376V40.729H106.556V43.311H109.136L109.138 50.298ZM115.321 50.298H117.979V47.564H119.346C119.81 47.5942 120.275 47.5276 120.711 47.3686C121.148 47.2095 121.547 46.9614 121.882 46.64C122.218 46.3186 122.483 45.9309 122.661 45.5015C122.839 45.0722 122.925 44.6106 122.915 44.146C122.925 43.6813 122.838 43.2196 122.66 42.7903C122.482 42.3609 122.217 41.9733 121.881 41.6519C121.545 41.3306 121.146 41.0826 120.71 40.9237C120.273 40.7648 119.808 40.6985 119.344 40.729H115.319L115.321 50.298ZM117.979 45.134V43.159H119.116C119.251 43.1538 119.385 43.1752 119.511 43.222C119.638 43.2688 119.754 43.3401 119.852 43.4318C119.951 43.5235 120.031 43.6338 120.087 43.7564C120.143 43.8789 120.174 44.0113 120.179 44.146C120.174 44.2807 120.143 44.4131 120.087 44.5356C120.031 44.6582 119.951 44.7685 119.852 44.8602C119.754 44.9519 119.638 45.0232 119.511 45.07C119.385 45.1168 119.251 45.1382 119.116 45.133L117.979 45.134ZM123.933 50.298H126.288L129.856 45.057V50.297H132.514V40.729H130.156L126.589 45.969V40.729H123.931L123.933 50.298ZM134.173 50.298H136.831V46.121L139.489 50.298H142.526L139.185 45.438L142.221 40.729H139.256L136.826 44.784V40.729H134.171L134.173 50.298ZM146.796 46.425L147.631 43.692L148.466 46.425H146.796ZM142.847 50.298H145.656L146.187 48.552H149.073L149.605 50.298H152.415L149.15 40.729H146.112L142.847 50.298Z" fill="#A0A3BC"/>
</g>
<defs>
<clipPath id="clip0_144_42096">
<rect width="152.416" height="62.502" fill="white"/>
</clipPath>
</defs>
</svg>
