<svg width="175" height="69" viewBox="0 0 175 69" fill="none" xmlns="http://www.w3.org/2000/svg">
<path d="M33.8391 55.238C44.9129 55.238 53.8901 46.2608 53.8901 35.187C53.8901 24.1131 44.9129 15.136 33.8391 15.136C22.7652 15.136 13.7881 24.1131 13.7881 35.187C13.7881 46.2608 22.7652 55.238 33.8391 55.238Z" stroke="#F2712F" stroke-width="1.527"/>
<path d="M22.4929 52.177C19.4869 53.69 16.5119 54.16 15.1929 53.033C11.8839 50.215 16.6539 39.203 25.8399 28.462C35.0259 17.721 45.1639 11.292 48.4729 14.11C49.8509 15.289 49.8299 17.889 48.6609 21.302" stroke="#F2712F" stroke-width="1.527"/>
<path d="M44.9829 52.177C47.9889 53.69 51.1939 54.16 52.5189 53.033C55.8279 50.215 51.0579 39.203 41.8719 28.462C32.6859 17.721 22.5559 11.292 19.2469 14.11C17.8689 15.289 17.8899 17.889 19.0589 21.302" stroke="#F2712F" stroke-width="1.527"/>
<path d="M53.4841 31.993C57.9101 33.141 59.3921 34.446 59.3921 36.366C59.3921 40.312 47.9101 43.432 33.7571 43.432C19.6041 43.432 8.1731 40.834 8.1731 36.613C8.1731 34.413 10.8241 32.928 14.1851 31.749" stroke="#F2712F" stroke-width="2.244"/>
<path d="M33.7661 67.5561C51.7949 67.5561 66.4101 52.6843 66.4101 34.3391C66.4101 15.9938 51.7949 1.12207 33.7661 1.12207C15.7373 1.12207 1.12207 15.9938 1.12207 34.3391C1.12207 52.6843 15.7373 67.5561 33.7661 67.5561Z" stroke="#F2712F" stroke-width="2.244"/>
<path d="M23.2759 48.214L33.8959 25.804L44.5269 48.214H40.4769L33.9019 34.321L27.3359 48.214H23.2759Z" fill="#F56E1E"/>
<path d="M33.8959 25.804L23.2759 48.214H27.3359L33.9009 34.321L40.4779 48.214H44.5279L33.8959 25.804Z" stroke="#F2712F" stroke-width="1.497"/>
<path d="M148.797 25.1811C148.771 26.867 149.081 28.5414 149.708 30.1065C150.335 31.6717 151.268 33.0965 152.451 34.2979C153.634 35.4993 155.044 36.4535 156.6 37.1047C158.155 37.756 159.824 38.0914 161.511 38.0914C163.197 38.0914 164.866 37.756 166.421 37.1047C167.977 36.4535 169.387 35.4993 170.57 34.2979C171.753 33.0965 172.686 31.6717 173.313 30.1065C173.94 28.5414 174.25 26.867 174.224 25.1811C174.25 23.4951 173.94 21.8208 173.313 20.2556C172.686 18.6904 171.753 17.2656 170.57 16.0642C169.387 14.8628 167.977 13.9087 166.421 13.2574C164.866 12.6061 163.197 12.2708 161.511 12.2708C159.824 12.2708 158.155 12.6061 156.6 13.2574C155.044 13.9087 153.634 14.8628 152.451 16.0642C151.268 17.2656 150.335 18.6904 149.708 20.2556C149.081 21.8208 148.771 23.4951 148.797 25.1811ZM167.262 25.1811C167.314 25.9696 167.204 26.7604 166.938 27.5045C166.672 28.2486 166.256 28.9302 165.715 29.5071C165.175 30.0839 164.523 30.5438 163.798 30.8582C163.073 31.1726 162.291 31.3348 161.501 31.3348C160.71 31.3348 159.928 31.1726 159.203 30.8582C158.478 30.5438 157.826 30.0839 157.286 29.5071C156.745 28.9302 156.33 28.2486 156.064 27.5045C155.798 26.7604 155.687 25.9696 155.739 25.1811C155.687 24.3925 155.798 23.6017 156.064 22.8576C156.33 22.1135 156.745 21.4319 157.286 20.855C157.826 20.2782 158.478 19.8183 159.203 19.5039C159.928 19.1895 160.71 19.0273 161.501 19.0273C162.291 19.0273 163.073 19.1895 163.798 19.5039C164.523 19.8183 165.175 20.2782 165.715 20.855C166.256 21.4319 166.672 22.1135 166.938 22.8576C167.204 23.6017 167.314 24.3925 167.262 25.1811ZM133.913 37.6811H140.865V19.4191H147.618V12.6661H127.167V19.4191H133.92V37.6851L133.913 37.6811ZM112.359 32.3161V27.1531H116.127C116.482 27.1269 116.838 27.1742 117.173 27.2919C117.509 27.4096 117.816 27.5952 118.077 27.8372C118.337 28.0791 118.545 28.3722 118.687 28.698C118.829 29.0239 118.902 29.3756 118.902 29.7311C118.902 30.0865 118.829 30.4382 118.687 30.7641C118.545 31.0899 118.337 31.383 118.077 31.6249C117.816 31.8669 117.509 32.0525 117.173 32.1702C116.838 32.2879 116.482 32.3352 116.127 32.3091H112.359V32.3161ZM112.359 22.3901V18.0201H115.532C115.835 17.9933 116.14 18.0298 116.427 18.1273C116.715 18.2248 116.98 18.3811 117.204 18.5863C117.428 18.7915 117.607 19.041 117.729 19.3191C117.852 19.5972 117.915 19.8977 117.915 20.2016C117.915 20.5054 117.852 20.8059 117.729 21.084C117.607 21.3621 117.428 21.6117 117.204 21.8168C116.98 22.022 116.715 22.1783 116.427 22.2758C116.14 22.3733 115.835 22.4098 115.532 22.3831H112.359V22.3901ZM105.407 37.6811H117.724C122.924 37.6811 126.064 34.5081 126.064 30.5311C126.079 29.6131 125.891 28.7032 125.513 27.8661C125.136 27.029 124.579 26.2854 123.882 25.6881C123.224 25.1437 122.487 24.7018 121.697 24.3771C122.314 24.0718 122.877 23.6701 123.367 23.1871C123.908 22.6752 124.338 22.0586 124.632 21.3748C124.927 20.691 125.079 19.9545 125.079 19.2101C125.079 15.5991 122.104 12.6551 116.937 12.6551H105.424V37.6851L105.407 37.6811ZM78.55 37.6811H85.897L87.285 33.1091H94.8321L96.2201 37.6811H103.567L95.0291 12.6611H87.0851L78.55 37.6811ZM88.8801 27.5601L91.062 20.4101L93.244 27.5601H88.8801Z" fill="#F56E1E"/>
<path d="M163.343 56.284H166.537L167.142 54.301H170.416L171.021 56.284H174.216L170.516 45.418H167.072L163.343 56.284ZM167.821 51.89L168.771 48.79L169.721 51.89H167.821ZM153.5 56.284H156.516V51.545L159.533 56.284H162.977L159.188 50.762L162.632 45.418H159.271L156.515 50.018V45.418H153.498L153.5 56.284ZM141.872 56.284H144.544L148.594 50.334V56.284H151.616V45.431H148.944L144.894 51.381V45.431H141.877L141.872 56.284ZM135.109 50.431V48.184H136.403C136.557 48.1727 136.711 48.1933 136.856 48.2443C137.001 48.2953 137.135 48.3758 137.247 48.4806C137.36 48.5854 137.45 48.7124 137.512 48.8535C137.573 48.9947 137.605 49.147 137.605 49.301C137.605 49.455 137.573 49.6073 137.512 49.7485C137.45 49.8896 137.36 50.0166 137.247 50.1214C137.135 50.2262 137.001 50.3067 136.856 50.3577C136.711 50.4087 136.557 50.4293 136.403 50.418H135.109V50.431ZM132.092 56.287H135.109V53.187H136.664C137.187 53.2076 137.708 53.1223 138.197 52.9365C138.686 52.7506 139.133 52.4679 139.51 52.1053C139.887 51.7427 140.187 51.3077 140.392 50.8263C140.597 50.345 140.703 49.8272 140.703 49.304C140.703 48.7808 140.597 48.2631 140.392 47.7817C140.187 47.3003 139.887 46.8653 139.51 46.5027C139.133 46.1401 138.686 45.8574 138.197 45.6715C137.708 45.4857 137.187 45.4005 136.664 45.421H132.092V56.284V56.287ZM125.078 56.287H128.095V48.351H131.028V45.418H122.145V48.351H125.078V56.284V56.287ZM112.312 56.287H115.329V51.545L118.346 56.284H121.79L118.001 50.762L121.445 45.418H118.084L115.328 50.018V45.418H112.316V56.284L112.312 56.287ZM102.438 56.287H110.716V53.612H105.455V52.057H110.11V49.468H105.455V48.091H110.538V45.418H102.438V56.287ZM90.2151 56.287C90.3383 56.3238 90.464 56.3519 90.5911 56.371C90.8627 56.426 91.139 56.4538 91.4161 56.454C93.3261 56.454 94.5891 55.16 94.7771 53.01L95.1211 48.355H97.5321V56.288H100.549V45.431H92.4491L91.9281 52.231C91.8548 53.1497 91.3954 53.609 90.5501 53.609H90.2061V56.281L90.2151 56.287ZM79.0161 52.662C79.3857 53.7508 80.0823 54.699 81.0108 55.3771C81.9393 56.0553 83.0545 56.4303 84.2041 56.451C85.245 56.4805 86.2735 56.2196 87.1744 55.6975C88.0753 55.1754 88.8131 54.4128 89.305 53.495C89.7969 52.5773 90.0235 51.5407 89.9594 50.5014C89.8954 49.4621 89.5432 48.4611 88.9423 47.6107C88.3415 46.7603 87.5156 46.094 86.5574 45.6865C85.5992 45.279 84.5464 45.1463 83.5171 45.3034C82.4877 45.4605 81.5225 45.9012 80.7294 46.576C79.9364 47.2508 79.3469 48.1331 79.0271 49.124L82.1271 49.385C82.2563 49.1511 82.4179 48.9367 82.6071 48.748C82.814 48.5375 83.0611 48.3707 83.3337 48.2577C83.6064 48.1446 83.899 48.0876 84.1941 48.09C84.5393 48.079 84.8828 48.1423 85.2014 48.2754C85.5201 48.4086 85.8064 48.6086 86.0411 48.862C86.2455 49.0869 86.4065 49.3476 86.5161 49.631H83.1861V52.042H86.5161C86.3387 52.5116 86.0189 52.9139 85.6014 53.1928C85.184 53.4716 84.6898 53.6129 84.1881 53.597C83.8964 53.6085 83.6055 53.5608 83.3327 53.4569C83.06 53.3529 82.8111 53.1948 82.6011 52.992C82.4049 52.822 82.2421 52.6168 82.1211 52.387L79.0161 52.662Z" fill="#F56E1E"/>
</svg>
